<mxfile host="Electron" modified="2024-05-30T23:17:06.566Z" agent="Mozilla/5.0 (Windows NT 10.0; Win64; x64) AppleWebKit/537.36 (KHTML, like Gecko) draw.io/24.4.8 Chrome/124.0.6367.207 Electron/30.0.6 Safari/537.36" etag="xBd_5N1V7PngV0kH6fg4" version="24.4.8" type="device" pages="3">
  <diagram id="C5RBs43oDa-KdzZeNtuy" name="Register">
    <mxGraphModel dx="2094" dy="1062" grid="1" gridSize="10" guides="1" tooltips="1" connect="1" arrows="1" fold="1" page="0" pageScale="1" pageWidth="827" pageHeight="1169" background="none" math="0" shadow="1">
      <root>
        <mxCell id="WIyWlLk6GJQsqaUBKTNV-0" />
        <mxCell id="WIyWlLk6GJQsqaUBKTNV-1" parent="WIyWlLk6GJQsqaUBKTNV-0" />
        <mxCell id="eWLW0DKjANRu85NP3hEd-13" value="Register View" style="shape=umlLifeline;perimeter=lifelinePerimeter;whiteSpace=wrap;html=1;container=0;dropTarget=0;collapsible=0;recursiveResize=0;outlineConnect=0;portConstraint=eastwest;newEdgeStyle={&quot;edgeStyle&quot;:&quot;elbowEdgeStyle&quot;,&quot;elbow&quot;:&quot;vertical&quot;,&quot;curved&quot;:0,&quot;rounded&quot;:0};labelBackgroundColor=none;rounded=1;glass=0;" parent="WIyWlLk6GJQsqaUBKTNV-1" vertex="1">
          <mxGeometry x="-310" y="30" width="150" height="490" as="geometry" />
        </mxCell>
        <mxCell id="eWLW0DKjANRu85NP3hEd-14" value="" style="html=1;points=[];perimeter=orthogonalPerimeter;outlineConnect=0;targetShapes=umlLifeline;portConstraint=eastwest;newEdgeStyle={&quot;edgeStyle&quot;:&quot;elbowEdgeStyle&quot;,&quot;elbow&quot;:&quot;vertical&quot;,&quot;curved&quot;:0,&quot;rounded&quot;:0};labelBackgroundColor=none;rounded=1;" parent="eWLW0DKjANRu85NP3hEd-13" vertex="1">
          <mxGeometry x="70" y="75" width="10" height="355" as="geometry" />
        </mxCell>
        <mxCell id="6FJY7qTMQ1HYPNhJQEil-0" value="User Register" style="swimlane;whiteSpace=wrap;html=1;" parent="WIyWlLk6GJQsqaUBKTNV-1" vertex="1">
          <mxGeometry x="-340" y="-20" width="1220" height="590" as="geometry" />
        </mxCell>
        <mxCell id="6FJY7qTMQ1HYPNhJQEil-6" value="Click Register Button" style="html=1;verticalAlign=bottom;endArrow=block;edgeStyle=elbowEdgeStyle;elbow=vertical;curved=0;rounded=1;labelBackgroundColor=none;fontColor=default;" parent="6FJY7qTMQ1HYPNhJQEil-0" source="6FJY7qTMQ1HYPNhJQEil-1" edge="1">
          <mxGeometry relative="1" as="geometry">
            <mxPoint x="-50" y="180" as="sourcePoint" />
            <Array as="points">
              <mxPoint x="110" y="180" />
            </Array>
            <mxPoint x="100" y="180.59" as="targetPoint" />
          </mxGeometry>
        </mxCell>
        <mxCell id="6FJY7qTMQ1HYPNhJQEil-7" value="Enter User info" style="html=1;verticalAlign=bottom;endArrow=block;edgeStyle=elbowEdgeStyle;elbow=vertical;curved=0;rounded=1;labelBackgroundColor=none;fontColor=default;exitX=1;exitY=0.3333333333333333;exitDx=0;exitDy=0;exitPerimeter=0;" parent="6FJY7qTMQ1HYPNhJQEil-0" source="6FJY7qTMQ1HYPNhJQEil-1" edge="1">
          <mxGeometry relative="1" as="geometry">
            <mxPoint x="-190" y="151" as="sourcePoint" />
            <Array as="points">
              <mxPoint x="110" y="150" />
            </Array>
            <mxPoint x="100" y="150.59" as="targetPoint" />
          </mxGeometry>
        </mxCell>
        <mxCell id="eWLW0DKjANRu85NP3hEd-16" value="Register_OnClick(username, password, email)" style="html=1;verticalAlign=bottom;endArrow=block;edgeStyle=elbowEdgeStyle;elbow=vertical;curved=0;rounded=1;labelBackgroundColor=none;fontColor=default;" parent="6FJY7qTMQ1HYPNhJQEil-0" target="i07Y9Q9IVcWRk9iywD31-3" edge="1">
          <mxGeometry relative="1" as="geometry">
            <mxPoint x="110" y="190.12" as="sourcePoint" />
            <Array as="points" />
            <mxPoint x="330" y="190.12" as="targetPoint" />
          </mxGeometry>
        </mxCell>
        <mxCell id="eWLW0DKjANRu85NP3hEd-44" value="Error Message" style="html=1;verticalAlign=bottom;endArrow=block;edgeStyle=elbowEdgeStyle;elbow=vertical;curved=0;rounded=1;labelBackgroundColor=none;fontColor=default;dashed=1;" parent="6FJY7qTMQ1HYPNhJQEil-0" source="i07Y9Q9IVcWRk9iywD31-3" edge="1">
          <mxGeometry relative="1" as="geometry">
            <mxPoint x="330" y="450.47058823529414" as="sourcePoint" />
            <Array as="points" />
            <mxPoint x="110" y="450" as="targetPoint" />
            <mxPoint as="offset" />
          </mxGeometry>
        </mxCell>
        <mxCell id="eWLW0DKjANRu85NP3hEd-43" value="PlayerProfile" style="html=1;verticalAlign=bottom;endArrow=block;edgeStyle=elbowEdgeStyle;elbow=vertical;curved=0;rounded=1;labelBackgroundColor=none;fontColor=default;dashed=1;" parent="6FJY7qTMQ1HYPNhJQEil-0" source="i07Y9Q9IVcWRk9iywD31-3" edge="1">
          <mxGeometry relative="1" as="geometry">
            <mxPoint x="330" y="320" as="sourcePoint" />
            <Array as="points">
              <mxPoint x="200" y="320" />
            </Array>
            <mxPoint x="110" y="320.5" as="targetPoint" />
          </mxGeometry>
        </mxCell>
        <mxCell id="i07Y9Q9IVcWRk9iywD31-2" value="Authentication Manager" style="shape=umlLifeline;perimeter=lifelinePerimeter;whiteSpace=wrap;html=1;container=0;dropTarget=0;collapsible=0;recursiveResize=0;outlineConnect=0;portConstraint=eastwest;newEdgeStyle={&quot;edgeStyle&quot;:&quot;elbowEdgeStyle&quot;,&quot;elbow&quot;:&quot;vertical&quot;,&quot;curved&quot;:0,&quot;rounded&quot;:0};labelBackgroundColor=none;rounded=1;glass=0;" parent="6FJY7qTMQ1HYPNhJQEil-0" vertex="1">
          <mxGeometry x="280" y="50" width="150" height="490" as="geometry" />
        </mxCell>
        <mxCell id="i07Y9Q9IVcWRk9iywD31-3" value="" style="html=1;points=[];perimeter=orthogonalPerimeter;outlineConnect=0;targetShapes=umlLifeline;portConstraint=eastwest;newEdgeStyle={&quot;edgeStyle&quot;:&quot;elbowEdgeStyle&quot;,&quot;elbow&quot;:&quot;vertical&quot;,&quot;curved&quot;:0,&quot;rounded&quot;:0};labelBackgroundColor=none;rounded=1;" parent="i07Y9Q9IVcWRk9iywD31-2" vertex="1">
          <mxGeometry x="70" y="75" width="10" height="355" as="geometry" />
        </mxCell>
        <mxCell id="i07Y9Q9IVcWRk9iywD31-6" value="Authentication Service" style="shape=umlLifeline;perimeter=lifelinePerimeter;whiteSpace=wrap;html=1;container=0;dropTarget=0;collapsible=0;recursiveResize=0;outlineConnect=0;portConstraint=eastwest;newEdgeStyle={&quot;edgeStyle&quot;:&quot;elbowEdgeStyle&quot;,&quot;elbow&quot;:&quot;vertical&quot;,&quot;curved&quot;:0,&quot;rounded&quot;:0};labelBackgroundColor=none;rounded=1;" parent="6FJY7qTMQ1HYPNhJQEil-0" vertex="1">
          <mxGeometry x="470" y="50" width="100" height="350" as="geometry" />
        </mxCell>
        <mxCell id="i07Y9Q9IVcWRk9iywD31-7" value="" style="html=1;points=[];perimeter=orthogonalPerimeter;outlineConnect=0;targetShapes=umlLifeline;portConstraint=eastwest;newEdgeStyle={&quot;edgeStyle&quot;:&quot;elbowEdgeStyle&quot;,&quot;elbow&quot;:&quot;vertical&quot;,&quot;curved&quot;:0,&quot;rounded&quot;:0};labelBackgroundColor=none;rounded=1;" parent="i07Y9Q9IVcWRk9iywD31-6" vertex="1">
          <mxGeometry x="45" y="110" width="10" height="170" as="geometry" />
        </mxCell>
        <mxCell id="i07Y9Q9IVcWRk9iywD31-10" value="AuthContext, PlayerProfile" style="html=1;verticalAlign=bottom;endArrow=block;edgeStyle=elbowEdgeStyle;elbow=vertical;curved=0;rounded=1;labelBackgroundColor=none;fontColor=default;dashed=1;" parent="6FJY7qTMQ1HYPNhJQEil-0" edge="1">
          <mxGeometry relative="1" as="geometry">
            <mxPoint x="515" y="300" as="sourcePoint" />
            <Array as="points">
              <mxPoint x="450" y="300" />
            </Array>
            <mxPoint x="360" y="300.5" as="targetPoint" />
          </mxGeometry>
        </mxCell>
        <mxCell id="eWLW0DKjANRu85NP3hEd-17" value="PlayFabClient" style="shape=umlLifeline;perimeter=lifelinePerimeter;whiteSpace=wrap;html=1;container=0;dropTarget=0;collapsible=0;recursiveResize=0;outlineConnect=0;portConstraint=eastwest;newEdgeStyle={&quot;edgeStyle&quot;:&quot;elbowEdgeStyle&quot;,&quot;elbow&quot;:&quot;vertical&quot;,&quot;curved&quot;:0,&quot;rounded&quot;:0};labelBackgroundColor=none;rounded=1;" parent="6FJY7qTMQ1HYPNhJQEil-0" vertex="1">
          <mxGeometry x="860" y="50" width="100" height="490" as="geometry" />
        </mxCell>
        <mxCell id="eWLW0DKjANRu85NP3hEd-18" value="" style="html=1;points=[];perimeter=orthogonalPerimeter;outlineConnect=0;targetShapes=umlLifeline;portConstraint=eastwest;newEdgeStyle={&quot;edgeStyle&quot;:&quot;elbowEdgeStyle&quot;,&quot;elbow&quot;:&quot;vertical&quot;,&quot;curved&quot;:0,&quot;rounded&quot;:0};labelBackgroundColor=none;rounded=1;" parent="eWLW0DKjANRu85NP3hEd-17" vertex="1">
          <mxGeometry x="45" y="100" width="10" height="270" as="geometry" />
        </mxCell>
        <mxCell id="eWLW0DKjANRu85NP3hEd-21" value="PlayFab" style="shape=umlLifeline;perimeter=lifelinePerimeter;whiteSpace=wrap;html=1;container=0;dropTarget=0;collapsible=0;recursiveResize=0;outlineConnect=0;portConstraint=eastwest;newEdgeStyle={&quot;edgeStyle&quot;:&quot;elbowEdgeStyle&quot;,&quot;elbow&quot;:&quot;vertical&quot;,&quot;curved&quot;:0,&quot;rounded&quot;:0};labelBackgroundColor=none;rounded=1;" parent="6FJY7qTMQ1HYPNhJQEil-0" vertex="1">
          <mxGeometry x="1080" y="50" width="100" height="490" as="geometry" />
        </mxCell>
        <mxCell id="eWLW0DKjANRu85NP3hEd-22" value="" style="html=1;points=[];perimeter=orthogonalPerimeter;outlineConnect=0;targetShapes=umlLifeline;portConstraint=eastwest;newEdgeStyle={&quot;edgeStyle&quot;:&quot;elbowEdgeStyle&quot;,&quot;elbow&quot;:&quot;vertical&quot;,&quot;curved&quot;:0,&quot;rounded&quot;:0};labelBackgroundColor=none;rounded=1;" parent="eWLW0DKjANRu85NP3hEd-21" vertex="1">
          <mxGeometry x="45" y="100" width="10" height="250" as="geometry" />
        </mxCell>
        <mxCell id="eWLW0DKjANRu85NP3hEd-23" value="RegisterPlayFabUser(request)" style="html=1;verticalAlign=bottom;endArrow=block;edgeStyle=elbowEdgeStyle;elbow=vertical;curved=0;rounded=1;labelBackgroundColor=none;fontColor=default;" parent="6FJY7qTMQ1HYPNhJQEil-0" target="eWLW0DKjANRu85NP3hEd-22" edge="1">
          <mxGeometry relative="1" as="geometry">
            <mxPoint x="920" y="220" as="sourcePoint" />
            <Array as="points">
              <mxPoint x="915" y="220" />
            </Array>
            <mxPoint x="1110" y="219.5" as="targetPoint" />
          </mxGeometry>
        </mxCell>
        <mxCell id="eWLW0DKjANRu85NP3hEd-25" value="OnRegister Success" style="shape=umlFrame;whiteSpace=wrap;html=1;pointerEvents=0;labelBackgroundColor=none;rounded=1;width=90;height=30;" parent="6FJY7qTMQ1HYPNhJQEil-0" vertex="1">
          <mxGeometry x="890" y="160" width="260" height="100" as="geometry" />
        </mxCell>
        <mxCell id="eWLW0DKjANRu85NP3hEd-27" value="RegisterPlayFabUserResult" style="html=1;verticalAlign=bottom;endArrow=block;edgeStyle=elbowEdgeStyle;elbow=vertical;curved=0;rounded=1;labelBackgroundColor=none;fontColor=default;dashed=1;" parent="6FJY7qTMQ1HYPNhJQEil-0" edge="1">
          <mxGeometry relative="1" as="geometry">
            <mxPoint x="1125" y="250" as="sourcePoint" />
            <Array as="points" />
            <mxPoint x="915" y="250" as="targetPoint" />
            <mxPoint as="offset" />
          </mxGeometry>
        </mxCell>
        <mxCell id="eWLW0DKjANRu85NP3hEd-29" value="PlayFabErrorHandler" style="shape=umlLifeline;perimeter=lifelinePerimeter;whiteSpace=wrap;html=1;container=0;dropTarget=0;collapsible=0;recursiveResize=0;outlineConnect=0;portConstraint=eastwest;newEdgeStyle={&quot;edgeStyle&quot;:&quot;elbowEdgeStyle&quot;,&quot;elbow&quot;:&quot;vertical&quot;,&quot;curved&quot;:0,&quot;rounded&quot;:0};labelBackgroundColor=none;rounded=1;" parent="6FJY7qTMQ1HYPNhJQEil-0" vertex="1">
          <mxGeometry x="680" y="50" width="120" height="490" as="geometry" />
        </mxCell>
        <mxCell id="eWLW0DKjANRu85NP3hEd-37" value="" style="html=1;points=[];perimeter=orthogonalPerimeter;outlineConnect=0;targetShapes=umlLifeline;portConstraint=eastwest;newEdgeStyle={&quot;edgeStyle&quot;:&quot;elbowEdgeStyle&quot;,&quot;elbow&quot;:&quot;vertical&quot;,&quot;curved&quot;:0,&quot;rounded&quot;:0};labelBackgroundColor=none;rounded=1;" parent="eWLW0DKjANRu85NP3hEd-29" vertex="1">
          <mxGeometry x="55" y="100" width="10" height="300" as="geometry" />
        </mxCell>
        <mxCell id="eWLW0DKjANRu85NP3hEd-32" value="PlayFabError" style="html=1;verticalAlign=bottom;endArrow=block;edgeStyle=elbowEdgeStyle;elbow=vertical;curved=0;rounded=1;labelBackgroundColor=none;fontColor=default;dashed=1;" parent="6FJY7qTMQ1HYPNhJQEil-0" edge="1">
          <mxGeometry relative="1" as="geometry">
            <mxPoint x="1125" y="360" as="sourcePoint" />
            <Array as="points" />
            <mxPoint x="915" y="360" as="targetPoint" />
            <mxPoint as="offset" />
          </mxGeometry>
        </mxCell>
        <mxCell id="eWLW0DKjANRu85NP3hEd-34" value="PlayFabError" style="html=1;verticalAlign=bottom;endArrow=block;edgeStyle=elbowEdgeStyle;elbow=vertical;curved=0;rounded=1;labelBackgroundColor=none;fontColor=default;dashed=1;" parent="6FJY7qTMQ1HYPNhJQEil-0" edge="1">
          <mxGeometry x="-0.0625" relative="1" as="geometry">
            <mxPoint x="905" y="400" as="sourcePoint" />
            <Array as="points">
              <mxPoint x="830" y="400" />
            </Array>
            <mxPoint x="745" y="400" as="targetPoint" />
            <mxPoint as="offset" />
          </mxGeometry>
        </mxCell>
        <mxCell id="eWLW0DKjANRu85NP3hEd-35" value="AuthError" style="html=1;verticalAlign=bottom;endArrow=block;edgeStyle=elbowEdgeStyle;elbow=vertical;curved=0;rounded=1;labelBackgroundColor=none;fontColor=default;dashed=1;" parent="6FJY7qTMQ1HYPNhJQEil-0" source="eWLW0DKjANRu85NP3hEd-37" target="i07Y9Q9IVcWRk9iywD31-3" edge="1">
          <mxGeometry x="0.5692" relative="1" as="geometry">
            <mxPoint x="665" y="430" as="sourcePoint" />
            <Array as="points">
              <mxPoint x="610" y="430" />
            </Array>
            <mxPoint x="525" y="430" as="targetPoint" />
            <mxPoint as="offset" />
          </mxGeometry>
        </mxCell>
        <mxCell id="eWLW0DKjANRu85NP3hEd-36" value="RegisterPlayFabUserResult" style="html=1;verticalAlign=bottom;endArrow=block;edgeStyle=elbowEdgeStyle;elbow=vertical;curved=0;rounded=1;labelBackgroundColor=none;fontColor=default;dashed=1;" parent="6FJY7qTMQ1HYPNhJQEil-0" source="eWLW0DKjANRu85NP3hEd-18" edge="1">
          <mxGeometry x="0.4474" relative="1" as="geometry">
            <mxPoint x="835" y="280" as="sourcePoint" />
            <Array as="points" />
            <mxPoint x="525" y="280" as="targetPoint" />
            <mxPoint as="offset" />
          </mxGeometry>
        </mxCell>
        <mxCell id="eWLW0DKjANRu85NP3hEd-41" value="OnRegister Fail" style="shape=umlFrame;whiteSpace=wrap;html=1;pointerEvents=0;labelBackgroundColor=none;rounded=1;width=85;height=30;" parent="6FJY7qTMQ1HYPNhJQEil-0" vertex="1">
          <mxGeometry x="890" y="300" width="260" height="80" as="geometry" />
        </mxCell>
        <mxCell id="i07Y9Q9IVcWRk9iywD31-8" value="Authenticate(method&lt;span style=&quot;background-color: initial;&quot;&gt;)&lt;/span&gt;" style="html=1;verticalAlign=bottom;endArrow=block;edgeStyle=elbowEdgeStyle;elbow=vertical;curved=0;rounded=1;labelBackgroundColor=none;fontColor=default;" parent="6FJY7qTMQ1HYPNhJQEil-0" edge="1">
          <mxGeometry relative="1" as="geometry">
            <mxPoint x="360" y="200" as="sourcePoint" />
            <Array as="points">
              <mxPoint x="440" y="200.5" />
            </Array>
            <mxPoint x="515" y="200" as="targetPoint" />
          </mxGeometry>
        </mxCell>
        <mxCell id="eWLW0DKjANRu85NP3hEd-20" value="Register(username, password, email&lt;span style=&quot;background-color: initial;&quot;&gt;)&lt;/span&gt;" style="html=1;verticalAlign=bottom;endArrow=block;edgeStyle=elbowEdgeStyle;elbow=vertical;curved=0;rounded=1;labelBackgroundColor=none;fontColor=default;jumpStyle=none;" parent="6FJY7qTMQ1HYPNhJQEil-0" edge="1">
          <mxGeometry x="-0.4474" relative="1" as="geometry">
            <mxPoint x="525" y="210" as="sourcePoint" />
            <Array as="points">
              <mxPoint x="600" y="210" />
            </Array>
            <mxPoint x="905" y="210" as="targetPoint" />
            <mxPoint as="offset" />
          </mxGeometry>
        </mxCell>
        <mxCell id="6FJY7qTMQ1HYPNhJQEil-1" value="Actor" style="shape=umlActor;verticalLabelPosition=bottom;verticalAlign=top;html=1;outlineConnect=0;" parent="WIyWlLk6GJQsqaUBKTNV-1" vertex="1">
          <mxGeometry x="-580" y="110" width="30" height="60" as="geometry" />
        </mxCell>
      </root>
    </mxGraphModel>
  </diagram>
  <diagram id="2zPq-JnPETkkiSN4lSlv" name="Login">
    <mxGraphModel dx="2144" dy="1762" grid="1" gridSize="10" guides="1" tooltips="1" connect="1" arrows="1" fold="1" page="1" pageScale="1" pageWidth="850" pageHeight="1100" math="0" shadow="0">
      <root>
        <mxCell id="0" />
        <mxCell id="1" parent="0" />
        <mxCell id="9pFvlmLkTShVl_0i6Fsn-1" value="Authentication Manager" style="shape=umlLifeline;perimeter=lifelinePerimeter;whiteSpace=wrap;html=1;container=0;dropTarget=0;collapsible=0;recursiveResize=0;outlineConnect=0;portConstraint=eastwest;newEdgeStyle={&quot;edgeStyle&quot;:&quot;elbowEdgeStyle&quot;,&quot;elbow&quot;:&quot;vertical&quot;,&quot;curved&quot;:0,&quot;rounded&quot;:0};labelBackgroundColor=none;rounded=1;glass=0;" parent="1" vertex="1">
          <mxGeometry x="-80" y="30" width="150" height="490" as="geometry" />
        </mxCell>
        <mxCell id="9pFvlmLkTShVl_0i6Fsn-2" value="" style="html=1;points=[];perimeter=orthogonalPerimeter;outlineConnect=0;targetShapes=umlLifeline;portConstraint=eastwest;newEdgeStyle={&quot;edgeStyle&quot;:&quot;elbowEdgeStyle&quot;,&quot;elbow&quot;:&quot;vertical&quot;,&quot;curved&quot;:0,&quot;rounded&quot;:0};labelBackgroundColor=none;rounded=1;" parent="9pFvlmLkTShVl_0i6Fsn-1" vertex="1">
          <mxGeometry x="70" y="75" width="10" height="375" as="geometry" />
        </mxCell>
        <mxCell id="9pFvlmLkTShVl_0i6Fsn-3" value="Authentication Service" style="shape=umlLifeline;perimeter=lifelinePerimeter;whiteSpace=wrap;html=1;container=0;dropTarget=0;collapsible=0;recursiveResize=0;outlineConnect=0;portConstraint=eastwest;newEdgeStyle={&quot;edgeStyle&quot;:&quot;elbowEdgeStyle&quot;,&quot;elbow&quot;:&quot;vertical&quot;,&quot;curved&quot;:0,&quot;rounded&quot;:0};labelBackgroundColor=none;rounded=1;" parent="1" vertex="1">
          <mxGeometry x="110" y="30" width="100" height="350" as="geometry" />
        </mxCell>
        <mxCell id="9pFvlmLkTShVl_0i6Fsn-4" value="" style="html=1;points=[];perimeter=orthogonalPerimeter;outlineConnect=0;targetShapes=umlLifeline;portConstraint=eastwest;newEdgeStyle={&quot;edgeStyle&quot;:&quot;elbowEdgeStyle&quot;,&quot;elbow&quot;:&quot;vertical&quot;,&quot;curved&quot;:0,&quot;rounded&quot;:0};labelBackgroundColor=none;rounded=1;" parent="9pFvlmLkTShVl_0i6Fsn-3" vertex="1">
          <mxGeometry x="45" y="110" width="10" height="170" as="geometry" />
        </mxCell>
        <mxCell id="9pFvlmLkTShVl_0i6Fsn-5" value="AuthContext, PlayerProfile" style="html=1;verticalAlign=bottom;endArrow=block;edgeStyle=elbowEdgeStyle;elbow=vertical;curved=0;rounded=1;labelBackgroundColor=none;fontColor=default;dashed=1;" parent="1" edge="1">
          <mxGeometry relative="1" as="geometry">
            <mxPoint x="155" y="280" as="sourcePoint" />
            <Array as="points">
              <mxPoint x="90" y="280" />
            </Array>
            <mxPoint y="280.5" as="targetPoint" />
          </mxGeometry>
        </mxCell>
        <mxCell id="9pFvlmLkTShVl_0i6Fsn-6" value="Login View" style="shape=umlLifeline;perimeter=lifelinePerimeter;whiteSpace=wrap;html=1;container=0;dropTarget=0;collapsible=0;recursiveResize=0;outlineConnect=0;portConstraint=eastwest;newEdgeStyle={&quot;edgeStyle&quot;:&quot;elbowEdgeStyle&quot;,&quot;elbow&quot;:&quot;vertical&quot;,&quot;curved&quot;:0,&quot;rounded&quot;:0};labelBackgroundColor=none;rounded=1;glass=0;" parent="1" vertex="1">
          <mxGeometry x="-310" y="30" width="150" height="490" as="geometry" />
        </mxCell>
        <mxCell id="9pFvlmLkTShVl_0i6Fsn-7" value="" style="html=1;points=[];perimeter=orthogonalPerimeter;outlineConnect=0;targetShapes=umlLifeline;portConstraint=eastwest;newEdgeStyle={&quot;edgeStyle&quot;:&quot;elbowEdgeStyle&quot;,&quot;elbow&quot;:&quot;vertical&quot;,&quot;curved&quot;:0,&quot;rounded&quot;:0};labelBackgroundColor=none;rounded=1;" parent="9pFvlmLkTShVl_0i6Fsn-6" vertex="1">
          <mxGeometry x="70" y="75" width="10" height="375" as="geometry" />
        </mxCell>
        <mxCell id="9pFvlmLkTShVl_0i6Fsn-8" value="PlayFabClient" style="shape=umlLifeline;perimeter=lifelinePerimeter;whiteSpace=wrap;html=1;container=0;dropTarget=0;collapsible=0;recursiveResize=0;outlineConnect=0;portConstraint=eastwest;newEdgeStyle={&quot;edgeStyle&quot;:&quot;elbowEdgeStyle&quot;,&quot;elbow&quot;:&quot;vertical&quot;,&quot;curved&quot;:0,&quot;rounded&quot;:0};labelBackgroundColor=none;rounded=1;" parent="1" vertex="1">
          <mxGeometry x="500" y="30" width="100" height="490" as="geometry" />
        </mxCell>
        <mxCell id="9pFvlmLkTShVl_0i6Fsn-9" value="" style="html=1;points=[];perimeter=orthogonalPerimeter;outlineConnect=0;targetShapes=umlLifeline;portConstraint=eastwest;newEdgeStyle={&quot;edgeStyle&quot;:&quot;elbowEdgeStyle&quot;,&quot;elbow&quot;:&quot;vertical&quot;,&quot;curved&quot;:0,&quot;rounded&quot;:0};labelBackgroundColor=none;rounded=1;" parent="9pFvlmLkTShVl_0i6Fsn-8" vertex="1">
          <mxGeometry x="45" y="100" width="10" height="270" as="geometry" />
        </mxCell>
        <mxCell id="9pFvlmLkTShVl_0i6Fsn-10" value="PlayFab" style="shape=umlLifeline;perimeter=lifelinePerimeter;whiteSpace=wrap;html=1;container=0;dropTarget=0;collapsible=0;recursiveResize=0;outlineConnect=0;portConstraint=eastwest;newEdgeStyle={&quot;edgeStyle&quot;:&quot;elbowEdgeStyle&quot;,&quot;elbow&quot;:&quot;vertical&quot;,&quot;curved&quot;:0,&quot;rounded&quot;:0};labelBackgroundColor=none;rounded=1;" parent="1" vertex="1">
          <mxGeometry x="720" y="30" width="100" height="490" as="geometry" />
        </mxCell>
        <mxCell id="9pFvlmLkTShVl_0i6Fsn-11" value="" style="html=1;points=[];perimeter=orthogonalPerimeter;outlineConnect=0;targetShapes=umlLifeline;portConstraint=eastwest;newEdgeStyle={&quot;edgeStyle&quot;:&quot;elbowEdgeStyle&quot;,&quot;elbow&quot;:&quot;vertical&quot;,&quot;curved&quot;:0,&quot;rounded&quot;:0};labelBackgroundColor=none;rounded=1;" parent="9pFvlmLkTShVl_0i6Fsn-10" vertex="1">
          <mxGeometry x="45" y="100" width="10" height="250" as="geometry" />
        </mxCell>
        <mxCell id="9pFvlmLkTShVl_0i6Fsn-12" value="LoginWithXXX" style="html=1;verticalAlign=bottom;endArrow=block;edgeStyle=elbowEdgeStyle;elbow=vertical;curved=0;rounded=1;labelBackgroundColor=none;fontColor=default;" parent="1" target="9pFvlmLkTShVl_0i6Fsn-11" edge="1">
          <mxGeometry relative="1" as="geometry">
            <mxPoint x="560" y="200" as="sourcePoint" />
            <Array as="points">
              <mxPoint x="555" y="200" />
            </Array>
            <mxPoint x="750" y="199.5" as="targetPoint" />
          </mxGeometry>
        </mxCell>
        <mxCell id="9pFvlmLkTShVl_0i6Fsn-13" value="OnLoginSuccess" style="shape=umlFrame;whiteSpace=wrap;html=1;pointerEvents=0;labelBackgroundColor=none;rounded=1;width=110;height=30;" parent="1" vertex="1">
          <mxGeometry x="530" y="140" width="260" height="100" as="geometry" />
        </mxCell>
        <mxCell id="9pFvlmLkTShVl_0i6Fsn-14" value="LoginResult" style="html=1;verticalAlign=bottom;endArrow=block;edgeStyle=elbowEdgeStyle;elbow=vertical;curved=0;rounded=1;labelBackgroundColor=none;fontColor=default;dashed=1;" parent="1" edge="1">
          <mxGeometry relative="1" as="geometry">
            <mxPoint x="765" y="230" as="sourcePoint" />
            <Array as="points" />
            <mxPoint x="555" y="230" as="targetPoint" />
            <mxPoint as="offset" />
          </mxGeometry>
        </mxCell>
        <mxCell id="9pFvlmLkTShVl_0i6Fsn-15" value="PlayFabErrorHandler" style="shape=umlLifeline;perimeter=lifelinePerimeter;whiteSpace=wrap;html=1;container=0;dropTarget=0;collapsible=0;recursiveResize=0;outlineConnect=0;portConstraint=eastwest;newEdgeStyle={&quot;edgeStyle&quot;:&quot;elbowEdgeStyle&quot;,&quot;elbow&quot;:&quot;vertical&quot;,&quot;curved&quot;:0,&quot;rounded&quot;:0};labelBackgroundColor=none;rounded=1;" parent="1" vertex="1">
          <mxGeometry x="320" y="30" width="120" height="490" as="geometry" />
        </mxCell>
        <mxCell id="9pFvlmLkTShVl_0i6Fsn-16" value="" style="html=1;points=[];perimeter=orthogonalPerimeter;outlineConnect=0;targetShapes=umlLifeline;portConstraint=eastwest;newEdgeStyle={&quot;edgeStyle&quot;:&quot;elbowEdgeStyle&quot;,&quot;elbow&quot;:&quot;vertical&quot;,&quot;curved&quot;:0,&quot;rounded&quot;:0};labelBackgroundColor=none;rounded=1;" parent="9pFvlmLkTShVl_0i6Fsn-15" vertex="1">
          <mxGeometry x="55" y="100" width="10" height="300" as="geometry" />
        </mxCell>
        <mxCell id="9pFvlmLkTShVl_0i6Fsn-17" value="PlayFabError" style="html=1;verticalAlign=bottom;endArrow=block;edgeStyle=elbowEdgeStyle;elbow=vertical;curved=0;rounded=1;labelBackgroundColor=none;fontColor=default;dashed=1;" parent="1" edge="1">
          <mxGeometry relative="1" as="geometry">
            <mxPoint x="765" y="340" as="sourcePoint" />
            <Array as="points" />
            <mxPoint x="555" y="340" as="targetPoint" />
            <mxPoint as="offset" />
          </mxGeometry>
        </mxCell>
        <mxCell id="9pFvlmLkTShVl_0i6Fsn-18" value="PlayFabError" style="html=1;verticalAlign=bottom;endArrow=block;edgeStyle=elbowEdgeStyle;elbow=vertical;curved=0;rounded=1;labelBackgroundColor=none;fontColor=default;dashed=1;" parent="1" edge="1">
          <mxGeometry x="-0.0625" relative="1" as="geometry">
            <mxPoint x="545" y="380" as="sourcePoint" />
            <Array as="points">
              <mxPoint x="470" y="380" />
            </Array>
            <mxPoint x="385" y="380" as="targetPoint" />
            <mxPoint as="offset" />
          </mxGeometry>
        </mxCell>
        <mxCell id="9pFvlmLkTShVl_0i6Fsn-19" value="AuthError" style="html=1;verticalAlign=bottom;endArrow=block;edgeStyle=elbowEdgeStyle;elbow=vertical;curved=0;rounded=1;labelBackgroundColor=none;fontColor=default;dashed=1;" parent="1" source="9pFvlmLkTShVl_0i6Fsn-16" target="9pFvlmLkTShVl_0i6Fsn-2" edge="1">
          <mxGeometry x="0.5692" relative="1" as="geometry">
            <mxPoint x="305" y="410" as="sourcePoint" />
            <Array as="points">
              <mxPoint x="250" y="410" />
            </Array>
            <mxPoint x="165" y="410" as="targetPoint" />
            <mxPoint as="offset" />
          </mxGeometry>
        </mxCell>
        <mxCell id="9pFvlmLkTShVl_0i6Fsn-20" value="LoginResult" style="html=1;verticalAlign=bottom;endArrow=block;edgeStyle=elbowEdgeStyle;elbow=vertical;curved=0;rounded=1;labelBackgroundColor=none;fontColor=default;dashed=1;" parent="1" source="9pFvlmLkTShVl_0i6Fsn-9" edge="1">
          <mxGeometry x="0.4474" relative="1" as="geometry">
            <mxPoint x="475" y="260" as="sourcePoint" />
            <Array as="points" />
            <mxPoint x="165" y="260" as="targetPoint" />
            <mxPoint as="offset" />
          </mxGeometry>
        </mxCell>
        <mxCell id="9pFvlmLkTShVl_0i6Fsn-21" value="OnLoginFail" style="shape=umlFrame;whiteSpace=wrap;html=1;pointerEvents=0;labelBackgroundColor=none;rounded=1;width=85;height=30;" parent="1" vertex="1">
          <mxGeometry x="530" y="280" width="260" height="80" as="geometry" />
        </mxCell>
        <mxCell id="9pFvlmLkTShVl_0i6Fsn-22" value="User Login" style="swimlane;whiteSpace=wrap;html=1;" parent="1" vertex="1">
          <mxGeometry x="-340" y="-20" width="1220" height="590" as="geometry" />
        </mxCell>
        <mxCell id="9pFvlmLkTShVl_0i6Fsn-23" value="Click Login Button" style="html=1;verticalAlign=bottom;endArrow=block;edgeStyle=elbowEdgeStyle;elbow=vertical;curved=0;rounded=1;labelBackgroundColor=none;fontColor=default;" parent="9pFvlmLkTShVl_0i6Fsn-22" source="9pFvlmLkTShVl_0i6Fsn-30" edge="1">
          <mxGeometry x="-0.2609" y="-1" relative="1" as="geometry">
            <mxPoint x="-50" y="180" as="sourcePoint" />
            <Array as="points">
              <mxPoint x="110" y="180" />
            </Array>
            <mxPoint x="100" y="180.59" as="targetPoint" />
            <mxPoint as="offset" />
          </mxGeometry>
        </mxCell>
        <mxCell id="9pFvlmLkTShVl_0i6Fsn-24" value="Enter User info" style="html=1;verticalAlign=bottom;endArrow=block;edgeStyle=elbowEdgeStyle;elbow=vertical;curved=0;rounded=1;labelBackgroundColor=none;fontColor=default;exitX=1;exitY=0.3333333333333333;exitDx=0;exitDy=0;exitPerimeter=0;" parent="9pFvlmLkTShVl_0i6Fsn-22" source="9pFvlmLkTShVl_0i6Fsn-30" edge="1">
          <mxGeometry x="-0.2609" y="-1" relative="1" as="geometry">
            <mxPoint x="-190" y="151" as="sourcePoint" />
            <Array as="points">
              <mxPoint x="110" y="150" />
            </Array>
            <mxPoint x="100" y="150.59" as="targetPoint" />
            <mxPoint as="offset" />
          </mxGeometry>
        </mxCell>
        <mxCell id="9pFvlmLkTShVl_0i6Fsn-25" value="Login_OnClick()" style="html=1;verticalAlign=bottom;endArrow=block;edgeStyle=elbowEdgeStyle;elbow=vertical;curved=0;rounded=1;labelBackgroundColor=none;fontColor=default;" parent="9pFvlmLkTShVl_0i6Fsn-22" edge="1">
          <mxGeometry relative="1" as="geometry">
            <mxPoint x="110" y="190.12" as="sourcePoint" />
            <Array as="points" />
            <mxPoint x="330" y="190.12" as="targetPoint" />
          </mxGeometry>
        </mxCell>
        <mxCell id="9pFvlmLkTShVl_0i6Fsn-26" value="Authenticate(method&lt;span style=&quot;background-color: initial;&quot;&gt;)&lt;/span&gt;" style="html=1;verticalAlign=bottom;endArrow=block;edgeStyle=elbowEdgeStyle;elbow=vertical;curved=0;rounded=1;labelBackgroundColor=none;fontColor=default;" parent="9pFvlmLkTShVl_0i6Fsn-22" edge="1">
          <mxGeometry relative="1" as="geometry">
            <mxPoint x="340" y="200" as="sourcePoint" />
            <Array as="points">
              <mxPoint x="420" y="200.5" />
            </Array>
            <mxPoint x="495" y="200" as="targetPoint" />
          </mxGeometry>
        </mxCell>
        <mxCell id="9pFvlmLkTShVl_0i6Fsn-27" value="LoginWithXXX" style="html=1;verticalAlign=bottom;endArrow=block;edgeStyle=elbowEdgeStyle;elbow=vertical;curved=0;rounded=1;labelBackgroundColor=none;fontColor=default;jumpStyle=none;" parent="9pFvlmLkTShVl_0i6Fsn-22" edge="1">
          <mxGeometry x="-0.4474" relative="1" as="geometry">
            <mxPoint x="505" y="210" as="sourcePoint" />
            <Array as="points">
              <mxPoint x="580" y="210" />
            </Array>
            <mxPoint x="885" y="210" as="targetPoint" />
            <mxPoint as="offset" />
          </mxGeometry>
        </mxCell>
        <mxCell id="9pFvlmLkTShVl_0i6Fsn-28" value="Error Message" style="html=1;verticalAlign=bottom;endArrow=block;edgeStyle=elbowEdgeStyle;elbow=vertical;curved=0;rounded=1;labelBackgroundColor=none;fontColor=default;dashed=1;" parent="9pFvlmLkTShVl_0i6Fsn-22" edge="1">
          <mxGeometry relative="1" as="geometry">
            <mxPoint x="330" y="450.47058823529414" as="sourcePoint" />
            <Array as="points" />
            <mxPoint x="110" y="450" as="targetPoint" />
            <mxPoint as="offset" />
          </mxGeometry>
        </mxCell>
        <mxCell id="9pFvlmLkTShVl_0i6Fsn-29" value="PlayerProfile" style="html=1;verticalAlign=bottom;endArrow=block;edgeStyle=elbowEdgeStyle;elbow=vertical;curved=0;rounded=1;labelBackgroundColor=none;fontColor=default;dashed=1;" parent="9pFvlmLkTShVl_0i6Fsn-22" edge="1">
          <mxGeometry relative="1" as="geometry">
            <mxPoint x="330" y="320" as="sourcePoint" />
            <Array as="points">
              <mxPoint x="200" y="320" />
            </Array>
            <mxPoint x="110" y="320.5" as="targetPoint" />
          </mxGeometry>
        </mxCell>
        <mxCell id="9pFvlmLkTShVl_0i6Fsn-30" value="Actor" style="shape=umlActor;verticalLabelPosition=bottom;verticalAlign=top;html=1;outlineConnect=0;" parent="1" vertex="1">
          <mxGeometry x="-540" y="110" width="30" height="60" as="geometry" />
        </mxCell>
      </root>
    </mxGraphModel>
  </diagram>
  <diagram id="duM8JC22KyO4HIfyAu70" name="DailyReward">
    <mxGraphModel dx="1694" dy="662" grid="1" gridSize="10" guides="1" tooltips="1" connect="1" arrows="1" fold="1" page="0" pageScale="1" pageWidth="850" pageHeight="1100" math="0" shadow="0">
      <root>
        <mxCell id="0" />
        <mxCell id="1" parent="0" />
        <mxCell id="ft3onFS2T5pZU7FOAcKb-3" value="DailyRewardHandler" style="shape=umlLifeline;perimeter=lifelinePerimeter;whiteSpace=wrap;html=1;container=0;dropTarget=0;collapsible=0;recursiveResize=0;outlineConnect=0;portConstraint=eastwest;newEdgeStyle={&quot;edgeStyle&quot;:&quot;elbowEdgeStyle&quot;,&quot;elbow&quot;:&quot;vertical&quot;,&quot;curved&quot;:0,&quot;rounded&quot;:0};labelBackgroundColor=none;rounded=1;" parent="1" vertex="1">
          <mxGeometry x="320" y="120" width="125" height="300" as="geometry" />
        </mxCell>
        <mxCell id="ft3onFS2T5pZU7FOAcKb-4" value="" style="html=1;points=[];perimeter=orthogonalPerimeter;outlineConnect=0;targetShapes=umlLifeline;portConstraint=eastwest;newEdgeStyle={&quot;edgeStyle&quot;:&quot;elbowEdgeStyle&quot;,&quot;elbow&quot;:&quot;vertical&quot;,&quot;curved&quot;:0,&quot;rounded&quot;:0};labelBackgroundColor=none;rounded=1;" parent="ft3onFS2T5pZU7FOAcKb-3" vertex="1">
          <mxGeometry x="57.5" y="80" width="10" height="170" as="geometry" />
        </mxCell>
        <mxCell id="ft3onFS2T5pZU7FOAcKb-5" value="DailyRewardView" style="shape=umlLifeline;perimeter=lifelinePerimeter;whiteSpace=wrap;html=1;container=0;dropTarget=0;collapsible=0;recursiveResize=0;outlineConnect=0;portConstraint=eastwest;newEdgeStyle={&quot;edgeStyle&quot;:&quot;elbowEdgeStyle&quot;,&quot;elbow&quot;:&quot;vertical&quot;,&quot;curved&quot;:0,&quot;rounded&quot;:0};labelBackgroundColor=none;rounded=1;" parent="1" vertex="1">
          <mxGeometry x="130" y="120" width="100" height="300" as="geometry" />
        </mxCell>
        <mxCell id="ft3onFS2T5pZU7FOAcKb-6" value="" style="html=1;points=[];perimeter=orthogonalPerimeter;outlineConnect=0;targetShapes=umlLifeline;portConstraint=eastwest;newEdgeStyle={&quot;edgeStyle&quot;:&quot;elbowEdgeStyle&quot;,&quot;elbow&quot;:&quot;vertical&quot;,&quot;curved&quot;:0,&quot;rounded&quot;:0};labelBackgroundColor=none;rounded=1;" parent="ft3onFS2T5pZU7FOAcKb-5" vertex="1">
          <mxGeometry x="45" y="80" width="10" height="170" as="geometry" />
        </mxCell>
        <mxCell id="aya3Sy-MLFj3Hf3OioNP-3" value="Actor" style="shape=umlActor;verticalLabelPosition=bottom;verticalAlign=top;html=1;outlineConnect=0;" parent="1" vertex="1">
          <mxGeometry x="-30" y="210" width="30" height="60" as="geometry" />
        </mxCell>
        <mxCell id="tdNsQxh4n6OvZyDBStR3-2" value="Click Claim Daily Reward Button" style="html=1;verticalAlign=bottom;endArrow=block;curved=0;rounded=0;" parent="1" target="ft3onFS2T5pZU7FOAcKb-6" edge="1">
          <mxGeometry width="80" relative="1" as="geometry">
            <mxPoint y="240" as="sourcePoint" />
            <mxPoint x="170" y="240" as="targetPoint" />
          </mxGeometry>
        </mxCell>
        <mxCell id="tdNsQxh4n6OvZyDBStR3-3" value="ClaimDailyReward_OnClick()" style="html=1;verticalAlign=bottom;endArrow=block;curved=0;rounded=0;" parent="1" edge="1">
          <mxGeometry width="80" relative="1" as="geometry">
            <mxPoint x="185" y="260" as="sourcePoint" />
            <mxPoint x="377.5" y="260" as="targetPoint" />
          </mxGeometry>
        </mxCell>
        <mxCell id="nTin5kN3kxidUM13XaOL-1" value="CloudScriptRunner" style="shape=umlLifeline;perimeter=lifelinePerimeter;whiteSpace=wrap;html=1;container=0;dropTarget=0;collapsible=0;recursiveResize=0;outlineConnect=0;portConstraint=eastwest;newEdgeStyle={&quot;edgeStyle&quot;:&quot;elbowEdgeStyle&quot;,&quot;elbow&quot;:&quot;vertical&quot;,&quot;curved&quot;:0,&quot;rounded&quot;:0};labelBackgroundColor=none;rounded=1;" parent="1" vertex="1">
          <mxGeometry x="520" y="120" width="125" height="300" as="geometry" />
        </mxCell>
        <mxCell id="nTin5kN3kxidUM13XaOL-2" value="" style="html=1;points=[];perimeter=orthogonalPerimeter;outlineConnect=0;targetShapes=umlLifeline;portConstraint=eastwest;newEdgeStyle={&quot;edgeStyle&quot;:&quot;elbowEdgeStyle&quot;,&quot;elbow&quot;:&quot;vertical&quot;,&quot;curved&quot;:0,&quot;rounded&quot;:0};labelBackgroundColor=none;rounded=1;" parent="nTin5kN3kxidUM13XaOL-1" vertex="1">
          <mxGeometry x="57.5" y="80" width="10" height="170" as="geometry" />
        </mxCell>
        <mxCell id="nTin5kN3kxidUM13XaOL-3" value="ClaimDailyReward()" style="html=1;verticalAlign=bottom;endArrow=block;curved=0;rounded=0;" parent="1" edge="1">
          <mxGeometry width="80" relative="1" as="geometry">
            <mxPoint x="387.5" y="270" as="sourcePoint" />
            <mxPoint x="577.5" y="270" as="targetPoint" />
          </mxGeometry>
        </mxCell>
        <mxCell id="nTin5kN3kxidUM13XaOL-4" value="DailyReward (Backend)" style="shape=umlLifeline;perimeter=lifelinePerimeter;whiteSpace=wrap;html=1;container=0;dropTarget=0;collapsible=0;recursiveResize=0;outlineConnect=0;portConstraint=eastwest;newEdgeStyle={&quot;edgeStyle&quot;:&quot;elbowEdgeStyle&quot;,&quot;elbow&quot;:&quot;vertical&quot;,&quot;curved&quot;:0,&quot;rounded&quot;:0};labelBackgroundColor=none;rounded=1;" parent="1" vertex="1">
          <mxGeometry x="730" y="120" width="125" height="530" as="geometry" />
        </mxCell>
        <mxCell id="nTin5kN3kxidUM13XaOL-5" value="" style="html=1;points=[];perimeter=orthogonalPerimeter;outlineConnect=0;targetShapes=umlLifeline;portConstraint=eastwest;newEdgeStyle={&quot;edgeStyle&quot;:&quot;elbowEdgeStyle&quot;,&quot;elbow&quot;:&quot;vertical&quot;,&quot;curved&quot;:0,&quot;rounded&quot;:0};labelBackgroundColor=none;rounded=1;" parent="nTin5kN3kxidUM13XaOL-4" vertex="1">
          <mxGeometry x="57.5" y="80" width="10" height="380" as="geometry" />
        </mxCell>
        <mxCell id="nTin5kN3kxidUM13XaOL-6" value="RunScript(function name, params)" style="html=1;verticalAlign=bottom;endArrow=block;curved=0;rounded=0;" parent="1" source="nTin5kN3kxidUM13XaOL-2" target="nTin5kN3kxidUM13XaOL-5" edge="1">
          <mxGeometry width="80" relative="1" as="geometry">
            <mxPoint x="590" y="280" as="sourcePoint" />
            <mxPoint x="780" y="280" as="targetPoint" />
          </mxGeometry>
        </mxCell>
        <mxCell id="nTin5kN3kxidUM13XaOL-7" value="PlayFab" style="shape=umlLifeline;perimeter=lifelinePerimeter;whiteSpace=wrap;html=1;container=0;dropTarget=0;collapsible=0;recursiveResize=0;outlineConnect=0;portConstraint=eastwest;newEdgeStyle={&quot;edgeStyle&quot;:&quot;elbowEdgeStyle&quot;,&quot;elbow&quot;:&quot;vertical&quot;,&quot;curved&quot;:0,&quot;rounded&quot;:0};labelBackgroundColor=none;rounded=1;" parent="1" vertex="1">
          <mxGeometry x="960" y="120" width="100" height="540" as="geometry" />
        </mxCell>
        <mxCell id="nTin5kN3kxidUM13XaOL-8" value="" style="html=1;points=[];perimeter=orthogonalPerimeter;outlineConnect=0;targetShapes=umlLifeline;portConstraint=eastwest;newEdgeStyle={&quot;edgeStyle&quot;:&quot;elbowEdgeStyle&quot;,&quot;elbow&quot;:&quot;vertical&quot;,&quot;curved&quot;:0,&quot;rounded&quot;:0};labelBackgroundColor=none;rounded=1;" parent="nTin5kN3kxidUM13XaOL-7" vertex="1">
          <mxGeometry x="45" y="80" width="10" height="380" as="geometry" />
        </mxCell>
        <mxCell id="nTin5kN3kxidUM13XaOL-9" value="GetDailyRewardBundle()" style="html=1;verticalAlign=bottom;endArrow=block;curved=0;rounded=0;" parent="1" edge="1">
          <mxGeometry width="80" relative="1" as="geometry">
            <mxPoint x="797.5" y="300" as="sourcePoint" />
            <mxPoint x="1005" y="300" as="targetPoint" />
          </mxGeometry>
        </mxCell>
        <mxCell id="FbPk4Vt5Vaxj8_7vXXrG-1" value="DailyRewardBundleId" style="html=1;verticalAlign=bottom;endArrow=block;edgeStyle=elbowEdgeStyle;elbow=vertical;curved=0;rounded=1;labelBackgroundColor=none;fontColor=default;dashed=1;" parent="1" edge="1">
          <mxGeometry x="-0.0625" relative="1" as="geometry">
            <mxPoint x="1007.5" y="350" as="sourcePoint" />
            <Array as="points">
              <mxPoint x="887.5" y="350" />
            </Array>
            <mxPoint x="800" y="350" as="targetPoint" />
            <mxPoint as="offset" />
          </mxGeometry>
        </mxCell>
        <mxCell id="FbPk4Vt5Vaxj8_7vXXrG-2" value="opt" style="shape=umlFrame;whiteSpace=wrap;html=1;pointerEvents=0;labelBackgroundColor=none;rounded=1;" parent="1" vertex="1">
          <mxGeometry x="770" y="310" width="270" height="100" as="geometry" />
        </mxCell>
      </root>
    </mxGraphModel>
  </diagram>
</mxfile>
